<svg xmlns="http://www.w3.org/2000/svg" viewBox="0 0 400.69 9.5"><path d="M0 .16h8.5v2.26H5.65v6.92h-2.8V2.42H0zM9.78.16h2.8v3.21h3.06V.16h2.81v9.18h-2.81V5.62h-3.06v3.72h-2.8zM20.3.16h7.5v2h-4.7v1.42h4.36v1.87H23.1v1.81h4.83v2.08H20.3zM33.31 4.75a4.79 4.79 0 0 1 1.23-3.5A4.63 4.63 0 0 1 38 0a4.68 4.68 0 0 1 3.48 1.23 4.66 4.66 0 0 1 1.23 3.45 5.69 5.69 0 0 1-.54 2.64 3.77 3.77 0 0 1-1.54 1.6 5.05 5.05 0 0 1-2.52.58 5.7 5.7 0 0 1-2.55-.5 3.79 3.79 0 0 1-1.63-1.57 5.19 5.19 0 0 1-.62-2.68zm2.79 0a3.09 3.09 0 0 0 .51 2 1.7 1.7 0 0 0 1.39.62 1.72 1.72 0 0 0 1.39-.59 3.44 3.44 0 0 0 .5-2.14 2.83 2.83 0 0 0-.52-1.89 1.74 1.74 0 0 0-1.4-.6 1.66 1.66 0 0 0-1.35.61 3 3 0 0 0-.52 2.01zM44.21.16h6.91v2H47v1.6h3.5v1.83H47v3.75h-2.79zM52.64.16h6.92v2h-4.11v1.6H59v1.83h-3.55v3.75h-2.81zM61.18.16H64v9.18h-2.8zM72 5.58l2.46.75a4.78 4.78 0 0 1-.78 1.75 3.47 3.47 0 0 1-1.32 1.06 4.84 4.84 0 0 1-2 .36A5.78 5.78 0 0 1 68 9.06a3.84 3.84 0 0 1-1.61-1.53 5.25 5.25 0 0 1-.68-2.8 4.86 4.86 0 0 1 1.19-3.51A5.4 5.4 0 0 1 72.93.7a4.17 4.17 0 0 1 1.45 2.16l-2.47.55a2.4 2.4 0 0 0-.27-.61 1.63 1.63 0 0 0-.58-.5 1.58 1.58 0 0 0-.76-.18 1.62 1.62 0 0 0-1.45.78 3.29 3.29 0 0 0-.39 1.81 3.52 3.52 0 0 0 .46 2.09 1.78 1.78 0 0 0 2.5.11A2.88 2.88 0 0 0 72 5.58zM75.94.16h2.8v9.18h-2.8zM86.31 7.82h-3.17l-.44 1.52h-2.86l3.4-9.18h3.05l3.41 9.18h-2.93zm-.58-2l-1-3.3-1 3.3zM90.58.16h2.8v6.92h4.37v2.26h-7.17zM107.79 6V4.1h4.32V8a9 9 0 0 1-2.19 1.17 7.59 7.59 0 0 1-2.27.31 5.41 5.41 0 0 1-2.65-.54 3.79 3.79 0 0 1-1.58-1.66 5.57 5.57 0 0 1-.56-2.53 5.45 5.45 0 0 1 .61-2.62 4 4 0 0 1 1.82-1.68 5.73 5.73 0 0 1 2.48-.45 6.73 6.73 0 0 1 2.23.28 2.87 2.87 0 0 1 1.23.85A3.91 3.91 0 0 1 112 2.6l-2.7.49a1.52 1.52 0 0 0-.56-.8 2 2 0 0 0-2.49.38 3.16 3.16 0 0 0-.54 2.05 3.26 3.26 0 0 0 .55 2.13 2 2 0 0 0 1.54.64 3 3 0 0 0 .9-.14 5.6 5.6 0 0 0 1-.47V6zM119.67.16h2.79v5.47a4.81 4.81 0 0 1-.25 1.53 3.29 3.29 0 0 1-.79 1.27 3.14 3.14 0 0 1-1.12.76 5.64 5.64 0 0 1-2 .31 12.77 12.77 0 0 1-1.44-.1 3.77 3.77 0 0 1-1.26-.4 3.37 3.37 0 0 1-1-.79 3 3 0 0 1-.6-1.06 5.63 5.63 0 0 1-.26-1.55V.16h2.79v5.6a1.62 1.62 0 0 0 .47 1.17 1.76 1.76 0 0 0 2.27 0 1.59 1.59 0 0 0 .42-1.18zM124.42.16h2.8v9.18h-2.8zM129.27.16h4.15a4.84 4.84 0 0 1 2 .34 3.14 3.14 0 0 1 1.25 1 4 4 0 0 1 .72 1.47 6.84 6.84 0 0 1 .22 1.78 6.25 6.25 0 0 1-.34 2.25 3.85 3.85 0 0 1-.92 1.36 3 3 0 0 1-1.26.73 6.27 6.27 0 0 1-1.67.25h-4.15zm2.8 2.08v5h.68a2.9 2.9 0 0 0 1.25-.18 1.39 1.39 0 0 0 .58-.69 4.41 4.41 0 0 0 .21-1.6 3.16 3.16 0 0 0-.47-2 2 2 0 0 0-1.56-.53zM139.06.16h7.5v2h-4.69v1.42h4.35v1.87h-4.35v1.81h4.83v2.08h-7.64zM152.07 4.75a4.79 4.79 0 0 1 1.23-3.5A4.64 4.64 0 0 1 156.74 0a4.72 4.72 0 0 1 3.49 1.23 4.7 4.7 0 0 1 1.22 3.45 5.82 5.82 0 0 1-.53 2.64 3.86 3.86 0 0 1-1.55 1.6 5.05 5.05 0 0 1-2.52.58 5.7 5.7 0 0 1-2.53-.5 3.84 3.84 0 0 1-1.63-1.57 5.29 5.29 0 0 1-.62-2.68zm2.8 0a3.09 3.09 0 0 0 .51 2 1.7 1.7 0 0 0 1.38.61 1.74 1.74 0 0 0 1.4-.59 3.45 3.45 0 0 0 .49-2.14 2.88 2.88 0 0 0-.51-1.89 1.76 1.76 0 0 0-1.4-.6 1.67 1.67 0 0 0-1.36.61 3.11 3.11 0 0 0-.51 2.02zM163 .16h6.92v2h-4.11v1.6h3.51v1.83h-3.51v3.75H163zM175 .16h8.51v2.26h-2.86v6.92h-2.79V2.42H175zM184.76.16h2.79v3.21h3.06V.16h2.81v9.18h-2.81V5.62h-3.06v3.72h-2.79zM195.27.16h7.5v2h-4.69v1.42h4.35v1.87h-4.35v1.81h4.83v2.08h-7.64zM207.74.16h2.93l2 6.6 2-6.6h2.84l-3.37 9.18h-3zM223.31 7.82h-3.17l-.45 1.52h-2.85l3.4-9.18h3l3.4 9.18h-2.92zm-.58-2l-1-3.3-1 3.3zM227.6.16h2.62l3.4 5.08V.16h2.64v9.18h-2.64l-3.39-5v5h-2.63zM244 .16h2.79v5.47a4.55 4.55 0 0 1-.25 1.53 3.26 3.26 0 0 1-.78 1.27 3.23 3.23 0 0 1-1.12.76 5.72 5.72 0 0 1-2 .31 12.77 12.77 0 0 1-1.44-.1 3.83 3.83 0 0 1-1.26-.4 3.37 3.37 0 0 1-1-.79 2.82 2.82 0 0 1-.59-1.06 5.28 5.28 0 0 1-.26-1.55V.16h2.79v5.6a1.58 1.58 0 0 0 .41 1.17 1.51 1.51 0 0 0 1.14.42 1.54 1.54 0 0 0 1.13-.41 1.63 1.63 0 0 0 .44-1.18zM253.79 7.82h-3.18l-.44 1.52h-2.85l3.4-9.18h3.05l3.4 9.18h-2.93zm-.58-2l-1-3.3-1 3.3zM256.55.16h8.51v2.26h-2.85v6.92h-2.8V2.42h-2.86zM272.22.16H275v5.47a4.81 4.81 0 0 1-.25 1.53 3.29 3.29 0 0 1-.75 1.27 3.14 3.14 0 0 1-1.12.76 5.64 5.64 0 0 1-2 .31 12.77 12.77 0 0 1-1.44-.1 3.77 3.77 0 0 1-1.3-.37 3.37 3.37 0 0 1-1-.79 3 3 0 0 1-.6-1.06 5.63 5.63 0 0 1-.26-1.55V.16h2.79v5.6a1.62 1.62 0 0 0 .41 1.17 1.54 1.54 0 0 0 1.14.42 1.58 1.58 0 0 0 1.14-.41 1.63 1.63 0 0 0 .41-1.18zM280.44.16h8.5v2.26h-2.85v6.92h-2.8V2.42h-2.85zM289.43 4.75a4.79 4.79 0 0 1 1.23-3.5A4.64 4.64 0 0 1 294.1 0a4.72 4.72 0 0 1 3.49 1.23 4.7 4.7 0 0 1 1.22 3.45 5.69 5.69 0 0 1-.54 2.64 3.77 3.77 0 0 1-1.54 1.6 5.05 5.05 0 0 1-2.52.58 5.7 5.7 0 0 1-2.53-.5 3.84 3.84 0 0 1-1.63-1.57 5.29 5.29 0 0 1-.62-2.68zm2.8 0a3.15 3.15 0 0 0 .5 2 1.72 1.72 0 0 0 1.39.61 1.74 1.74 0 0 0 1.4-.59 3.45 3.45 0 0 0 .48-2.13 2.83 2.83 0 0 0-.52-1.89 1.72 1.72 0 0 0-1.39-.6 1.67 1.67 0 0 0-1.36.61 3.11 3.11 0 0 0-.5 2.01zM306.21.16H309v5.47a4.81 4.81 0 0 1-.25 1.53 3.29 3.29 0 0 1-.75 1.27 3.14 3.14 0 0 1-1.12.76 5.64 5.64 0 0 1-2 .31 12.77 12.77 0 0 1-1.44-.1 3.77 3.77 0 0 1-1.3-.37 3.37 3.37 0 0 1-1-.79 3 3 0 0 1-.6-1.06 5.63 5.63 0 0 1-.26-1.55V.16h2.79v5.6a1.62 1.62 0 0 0 .41 1.17 1.54 1.54 0 0 0 1.14.42 1.58 1.58 0 0 0 1.14-.41 1.63 1.63 0 0 0 .41-1.18zM310.89 9.34V.16h4.66a6.7 6.7 0 0 1 2 .22 2.1 2.1 0 0 1 1.11.84 2.56 2.56 0 0 1 .42 1.49 2.57 2.57 0 0 1-.34 1.29 2.56 2.56 0 0 1-.89.9 3.3 3.3 0 0 1-1 .37 2.83 2.83 0 0 1 .73.33 3.41 3.41 0 0 1 .45.49 3.64 3.64 0 0 1 .39.57l1.35 2.66h-3.16l-1.49-2.81a2 2 0 0 0-.51-.7 1.12 1.12 0 0 0-.69-.22h-.24v3.75zm2.81-5.46h1.18a3.87 3.87 0 0 0 .74-.13.74.74 0 0 0 .45-.29.83.83 0 0 0 .18-.53.83.83 0 0 0-.28-.68 1.65 1.65 0 0 0-1-.24h-1.27zM320.8.16h2.8v9.18h-2.8zM325.12 6.3l2.66-.17a2.06 2.06 0 0 0 .36 1 1.44 1.44 0 0 0 1.23.56 1.33 1.33 0 0 0 .92-.28.85.85 0 0 0 .33-.66.82.82 0 0 0-.31-.64 3.54 3.54 0 0 0-1.43-.54 6.15 6.15 0 0 1-2.63-1.11 2.26 2.26 0 0 1-.79-1.77 2.45 2.45 0 0 1 .41-1.34 2.68 2.68 0 0 1 1.21-1 5.64 5.64 0 0 1 2.23-.35 4.57 4.57 0 0 1 2.69.65 2.9 2.9 0 0 1 1 2.09l-2.64.15A1.42 1.42 0 0 0 330 2a1.38 1.38 0 0 0-.93-.28 1.1 1.1 0 0 0-.73.21.63.63 0 0 0-.25.51.54.54 0 0 0 .2.4 2.34 2.34 0 0 0 .94.33 11.89 11.89 0 0 1 2.63.81A2.93 2.93 0 0 1 333 5a2.63 2.63 0 0 1 .36 1.36 2.89 2.89 0 0 1-.51 1.64 3 3 0 0 1-1.34 1.13 5.32 5.32 0 0 1-2.18.39 4.45 4.45 0 0 1-3.2-.91 3.59 3.59 0 0 1-1.01-2.31zM334.71.16h3.68l1.42 5.58 1.41-5.58h3.68v9.18h-2.29v-7l-1.77 7h-2.07l-1.77-7v7h-2.29zM350.55 4.75a4.79 4.79 0 0 1 1.23-3.5A4.64 4.64 0 0 1 355.22 0a4.72 4.72 0 0 1 3.49 1.23 4.7 4.7 0 0 1 1.22 3.45 5.69 5.69 0 0 1-.54 2.64 3.77 3.77 0 0 1-1.54 1.6 5.05 5.05 0 0 1-2.52.58 5.7 5.7 0 0 1-2.53-.5 3.84 3.84 0 0 1-1.63-1.57 5.29 5.29 0 0 1-.62-2.68zm2.8 0a3.15 3.15 0 0 0 .5 2 1.72 1.72 0 0 0 1.39.61 1.74 1.74 0 0 0 1.4-.59 3.45 3.45 0 0 0 .49-2.14 2.83 2.83 0 0 0-.52-1.89 1.72 1.72 0 0 0-1.39-.6 1.67 1.67 0 0 0-1.36.61 3.11 3.11 0 0 0-.51 2.02zM361.45.16h6.91v2h-4.1v1.6h3.51v1.83h-3.51v3.75h-2.81zM369.88.16h6.92v2h-4.11v1.6h3.51v1.83h-3.51v3.75h-2.81zM378.42.16h2.8v9.18h-2.8zM389.26 5.58l2.45.75a4.78 4.78 0 0 1-.78 1.75 3.33 3.33 0 0 1-1.32 1.06 4.8 4.8 0 0 1-2 .36 5.7 5.7 0 0 1-2.41-.44 3.8 3.8 0 0 1-1.62-1.53 5.25 5.25 0 0 1-.68-2.8 4.82 4.82 0 0 1 1.2-3.51 5.39 5.39 0 0 1 6.07-.52 4.17 4.17 0 0 1 1.45 2.16l-2.47.55a2.4 2.4 0 0 0-.27-.61 1.69 1.69 0 0 0-.57-.5 1.61 1.61 0 0 0-.76-.18 1.63 1.63 0 0 0-1.46.78 3.29 3.29 0 0 0-.39 1.81 3.52 3.52 0 0 0 .46 2.09 1.78 1.78 0 0 0 2.5.11 3 3 0 0 0 .6-1.33zM393.06.16h7.5v2h-4.7v1.42h4.36v1.87h-4.36v1.81h4.83v2.08h-7.63z" style="fill:#fff"/></svg>